<svg viewBox="0 0 7200 1024" fill="none" xmlns="http://www.w3.org/2000/svg">
<path d="M603.2 368.283H494.6L299 221.883V133.083L603.2 368.283ZM725 436.683L299 436.683V362.283L725 362.283V436.683ZM725 213.483L521 335.883L472.4 285.483L725 129.483V213.483Z" fill="currentColor"/>
<path d="M390.564 893C362.564 893 340.164 884.8 323.364 868.4C306.964 852 298.764 830 298.764 802.4C298.764 773.2 307.364 750.6 324.564 734.6C342.164 718.2 367.964 710 401.964 710H437.364V644H401.964C367.964 644 342.164 636 324.564 620C307.364 603.6 298.764 580.8 298.764 551.6C298.764 524 306.964 502 323.364 485.6C340.164 469.2 362.564 461 390.564 461C412.964 461 430.564 465.2 443.364 473.6C456.564 482 465.764 493.2 470.964 507.2C476.564 521.2 479.364 536.6 479.364 553.4V603.2H545.364V553.4C545.364 536.6 547.964 521.2 553.164 507.2C558.764 493.2 567.964 482 580.764 473.6C593.964 465.2 611.764 461 634.164 461C662.164 461 684.364 469.2 700.764 485.6C717.564 502 725.964 524 725.964 551.6C725.964 580.8 717.364 603.6 700.164 620C682.964 636 657.164 644 622.764 644H587.364V710H622.764C657.164 710 682.964 718.2 700.164 734.6C717.364 750.6 725.964 773.2 725.964 802.4C725.964 830 717.564 852 700.764 868.4C684.364 884.8 662.164 893 634.164 893C611.764 893 593.964 888.8 580.764 880.4C567.964 872 558.764 860.8 553.164 846.8C547.964 832.8 545.364 817.4 545.364 800.6V750.8H479.364V800.6C479.364 817.4 476.564 832.8 470.964 846.8C465.764 860.8 456.564 872 443.364 880.4C430.564 888.8 412.964 893 390.564 893ZM587.364 552.2V603.2H622.764C643.964 603.2 659.364 599 668.964 590.6C678.564 581.8 683.364 568.8 683.364 551.6C683.364 534 678.564 521.4 668.964 513.8C659.764 506.2 648.164 502.4 634.164 502.4C618.564 502.4 606.764 507 598.764 516.2C591.164 525 587.364 537 587.364 552.2ZM401.964 603.2H437.364V552.2C437.364 537 433.364 525 425.364 516.2C417.764 507 406.164 502.4 390.564 502.4C376.564 502.4 364.764 506.2 355.164 513.8C345.964 521.4 341.364 534 341.364 551.6C341.364 568.8 346.164 581.8 355.764 590.6C365.364 599 380.764 603.2 401.964 603.2ZM479.364 710H545.364V644H479.364V710ZM390.564 851.6C406.164 851.6 417.764 847.2 425.364 838.4C433.364 829.2 437.364 817 437.364 801.8V750.8H401.964C380.764 750.8 365.364 755.2 355.764 764C346.164 772.4 341.364 785.2 341.364 802.4C341.364 820 345.964 832.6 355.164 840.2C364.764 847.8 376.564 851.6 390.564 851.6ZM587.364 801.8C587.364 817 591.164 829.2 598.764 838.4C606.764 847.2 618.564 851.6 634.164 851.6C648.164 851.6 659.764 847.8 668.964 840.2C678.564 832.6 683.364 820 683.364 802.4C683.364 785.2 678.564 772.4 668.964 764C659.364 755.2 643.964 750.8 622.764 750.8H587.364V801.8Z" fill="currentColor"/>
<text x="920" y="511" font-family="Geist, system-ui, -apple-system, sans-serif" font-size="900" font-weight="700" fill="currentColor" dominant-baseline="central">better-cmdk</text>
</svg>
